<mxfile host="app.diagrams.net" agent="Mozilla/5.0 (X11; Linux x86_64) AppleWebKit/537.36 (KHTML, like Gecko) Chrome/131.0.0.0 Safari/537.36" version="24.9.3">
  <diagram name="PÃ¡gina-1" id="PoT-X1FLIh-DgUGtckK3">
    <mxGraphModel dx="1114" dy="616" grid="1" gridSize="10" guides="1" tooltips="1" connect="1" arrows="1" fold="1" page="1" pageScale="1" pageWidth="827" pageHeight="1169" math="0" shadow="0">
      <root>
        <mxCell id="0" />
        <mxCell id="1" parent="0" />
        <mxCell id="3bzI0cTrOGsjWDIgpTP--1" value="INICIO conversor_euros_a_rupias" style="ellipse;whiteSpace=wrap;html=1;fillColor=#d5e8d4;strokeColor=#82b366;" vertex="1" parent="1">
          <mxGeometry x="315" y="10" width="170" height="80" as="geometry" />
        </mxCell>
        <mxCell id="3bzI0cTrOGsjWDIgpTP--2" value="RUPIAS" style="rounded=1;whiteSpace=wrap;html=1;fillColor=#dae8fc;strokeColor=#6c8ebf;" vertex="1" parent="1">
          <mxGeometry x="340" y="120" width="120" height="60" as="geometry" />
        </mxCell>
        <mxCell id="3bzI0cTrOGsjWDIgpTP--3" value="euros" style="rounded=1;whiteSpace=wrap;html=1;fillColor=#dae8fc;strokeColor=#6c8ebf;" vertex="1" parent="1">
          <mxGeometry x="340" y="220" width="120" height="60" as="geometry" />
        </mxCell>
        <mxCell id="3bzI0cTrOGsjWDIgpTP--4" value="monto_conversion" style="rounded=1;whiteSpace=wrap;html=1;fillColor=#dae8fc;strokeColor=#6c8ebf;" vertex="1" parent="1">
          <mxGeometry x="340" y="320" width="120" height="60" as="geometry" />
        </mxCell>
        <mxCell id="3bzI0cTrOGsjWDIgpTP--5" value="validacion" style="rounded=1;whiteSpace=wrap;html=1;fillColor=#dae8fc;strokeColor=#6c8ebf;" vertex="1" parent="1">
          <mxGeometry x="340" y="410" width="120" height="60" as="geometry" />
        </mxCell>
        <mxCell id="3bzI0cTrOGsjWDIgpTP--6" value="validacion = False" style="rounded=1;whiteSpace=wrap;html=1;fillColor=#dae8fc;strokeColor=#6c8ebf;" vertex="1" parent="1">
          <mxGeometry x="340" y="640" width="120" height="60" as="geometry" />
        </mxCell>
        <mxCell id="3bzI0cTrOGsjWDIgpTP--7" value="Mientras validacion = Falso Hacer" style="shape=hexagon;perimeter=hexagonPerimeter2;whiteSpace=wrap;html=1;fixedSize=1;fillColor=#e1d5e7;strokeColor=#9673a6;" vertex="1" parent="1">
          <mxGeometry x="295" y="820" width="210" height="80" as="geometry" />
        </mxCell>
        <mxCell id="3bzI0cTrOGsjWDIgpTP--8" value="&lt;blockquote style=&quot;margin: 0 0 0 40px; border: none; padding: 0px;&quot;&gt;Escribir &quot;Por favor introduzca un monto:&amp;nbsp;&quot;&lt;div&gt;&lt;span style=&quot;background-color: initial;&quot;&gt;Leer euros&lt;/span&gt;&lt;/div&gt;&lt;/blockquote&gt;" style="shape=parallelogram;perimeter=parallelogramPerimeter;whiteSpace=wrap;html=1;fixedSize=1;fillColor=#ffcc99;strokeColor=#36393d;align=left;" vertex="1" parent="1">
          <mxGeometry x="250" y="940" width="300" height="60" as="geometry" />
        </mxCell>
        <mxCell id="3bzI0cTrOGsjWDIgpTP--18" style="edgeStyle=orthogonalEdgeStyle;rounded=0;orthogonalLoop=1;jettySize=auto;html=1;exitX=0;exitY=0.75;exitDx=0;exitDy=0;entryX=0.417;entryY=0;entryDx=0;entryDy=0;entryPerimeter=0;strokeColor=#FF4D00;" edge="1" parent="1" source="3bzI0cTrOGsjWDIgpTP--9" target="3bzI0cTrOGsjWDIgpTP--10">
          <mxGeometry relative="1" as="geometry">
            <mxPoint x="240" y="1075" as="targetPoint" />
          </mxGeometry>
        </mxCell>
        <mxCell id="3bzI0cTrOGsjWDIgpTP--9" value="euros &amp;lt;= 0" style="rounded=1;whiteSpace=wrap;html=1;fillColor=#dae8fc;strokeColor=#6c8ebf;" vertex="1" parent="1">
          <mxGeometry x="340" y="1030" width="120" height="60" as="geometry" />
        </mxCell>
        <mxCell id="3bzI0cTrOGsjWDIgpTP--10" value="monto_conversion &amp;lt;- euros * RUPIAS&lt;div&gt;validacion &amp;lt;- Verdadero&lt;/div&gt;" style="rounded=1;whiteSpace=wrap;html=1;fillColor=#dae8fc;strokeColor=#6c8ebf;align=left;" vertex="1" parent="1">
          <mxGeometry x="160" y="1110" width="210" height="60" as="geometry" />
        </mxCell>
        <mxCell id="3bzI0cTrOGsjWDIgpTP--11" value="Escribir &#39;Monto invalido, Por favor Introduzca un monto valido.&#39;" style="rounded=1;whiteSpace=wrap;html=1;fillColor=#dae8fc;strokeColor=#6c8ebf;" vertex="1" parent="1">
          <mxGeometry x="410" y="1110" width="260" height="60" as="geometry" />
        </mxCell>
        <mxCell id="3bzI0cTrOGsjWDIgpTP--12" value="Escribir &quot;Monto en Rupias: &quot;, monto_conversion" style="shape=parallelogram;perimeter=parallelogramPerimeter;whiteSpace=wrap;html=1;fixedSize=1;fillColor=#ffcc99;strokeColor=#36393d;" vertex="1" parent="1">
          <mxGeometry x="250" y="1230" width="290" height="60" as="geometry" />
        </mxCell>
        <mxCell id="3bzI0cTrOGsjWDIgpTP--13" value="FIN conversor_euros_a_rupias" style="ellipse;whiteSpace=wrap;html=1;fillColor=#d5e8d4;strokeColor=#82b366;" vertex="1" parent="1">
          <mxGeometry x="320" y="1340" width="160" height="80" as="geometry" />
        </mxCell>
        <mxCell id="3bzI0cTrOGsjWDIgpTP--15" value="" style="endArrow=classic;html=1;rounded=0;exitX=0.5;exitY=1;exitDx=0;exitDy=0;fillColor=#ffcccc;strokeColor=#FF4D00;" edge="1" parent="1" source="3bzI0cTrOGsjWDIgpTP--11">
          <mxGeometry width="50" height="50" relative="1" as="geometry">
            <mxPoint x="540" y="1190" as="sourcePoint" />
            <mxPoint x="400" y="780" as="targetPoint" />
            <Array as="points">
              <mxPoint x="540" y="1190" />
              <mxPoint x="150" y="1190" />
              <mxPoint x="140" y="780" />
            </Array>
          </mxGeometry>
        </mxCell>
        <mxCell id="3bzI0cTrOGsjWDIgpTP--16" value="" style="endArrow=none;html=1;rounded=0;exitX=0.5;exitY=1;exitDx=0;exitDy=0;strokeColor=#FF4D00;" edge="1" parent="1" source="3bzI0cTrOGsjWDIgpTP--10">
          <mxGeometry width="50" height="50" relative="1" as="geometry">
            <mxPoint x="390" y="930" as="sourcePoint" />
            <mxPoint x="265" y="1190" as="targetPoint" />
          </mxGeometry>
        </mxCell>
        <mxCell id="3bzI0cTrOGsjWDIgpTP--17" value="" style="endArrow=classic;html=1;rounded=0;exitX=0.5;exitY=1;exitDx=0;exitDy=0;entryX=0.5;entryY=0;entryDx=0;entryDy=0;strokeColor=#FF4D00;" edge="1" parent="1" source="3bzI0cTrOGsjWDIgpTP--8" target="3bzI0cTrOGsjWDIgpTP--9">
          <mxGeometry width="50" height="50" relative="1" as="geometry">
            <mxPoint x="390" y="930" as="sourcePoint" />
            <mxPoint x="440" y="880" as="targetPoint" />
          </mxGeometry>
        </mxCell>
        <mxCell id="3bzI0cTrOGsjWDIgpTP--19" value="" style="endArrow=classic;html=1;rounded=0;exitX=0.5;exitY=1;exitDx=0;exitDy=0;entryX=0.5;entryY=0;entryDx=0;entryDy=0;strokeColor=#FF4D00;" edge="1" parent="1" source="3bzI0cTrOGsjWDIgpTP--7" target="3bzI0cTrOGsjWDIgpTP--8">
          <mxGeometry width="50" height="50" relative="1" as="geometry">
            <mxPoint x="390" y="930" as="sourcePoint" />
            <mxPoint x="440" y="880" as="targetPoint" />
          </mxGeometry>
        </mxCell>
        <mxCell id="3bzI0cTrOGsjWDIgpTP--20" value="" style="endArrow=classic;html=1;rounded=0;exitX=1;exitY=0.75;exitDx=0;exitDy=0;entryX=0.5;entryY=0;entryDx=0;entryDy=0;strokeColor=#FF4D00;" edge="1" parent="1" source="3bzI0cTrOGsjWDIgpTP--9" target="3bzI0cTrOGsjWDIgpTP--11">
          <mxGeometry width="50" height="50" relative="1" as="geometry">
            <mxPoint x="390" y="930" as="sourcePoint" />
            <mxPoint x="440" y="880" as="targetPoint" />
            <Array as="points">
              <mxPoint x="540" y="1075" />
            </Array>
          </mxGeometry>
        </mxCell>
        <mxCell id="3bzI0cTrOGsjWDIgpTP--21" value="" style="endArrow=classic;html=1;rounded=0;exitX=0.5;exitY=1;exitDx=0;exitDy=0;entryX=0.5;entryY=0;entryDx=0;entryDy=0;strokeColor=#FF4D00;" edge="1" parent="1" source="3bzI0cTrOGsjWDIgpTP--6" target="3bzI0cTrOGsjWDIgpTP--7">
          <mxGeometry width="50" height="50" relative="1" as="geometry">
            <mxPoint x="390" y="930" as="sourcePoint" />
            <mxPoint x="440" y="880" as="targetPoint" />
          </mxGeometry>
        </mxCell>
        <mxCell id="3bzI0cTrOGsjWDIgpTP--22" value="" style="endArrow=classic;html=1;rounded=0;exitX=1;exitY=0.5;exitDx=0;exitDy=0;entryX=1;entryY=0.5;entryDx=0;entryDy=0;fillColor=#ffcccc;strokeColor=#FF4D00;" edge="1" parent="1" source="3bzI0cTrOGsjWDIgpTP--7" target="3bzI0cTrOGsjWDIgpTP--12">
          <mxGeometry width="50" height="50" relative="1" as="geometry">
            <mxPoint x="390" y="930" as="sourcePoint" />
            <mxPoint x="680" y="860" as="targetPoint" />
            <Array as="points">
              <mxPoint x="690" y="860" />
              <mxPoint x="690" y="1260" />
            </Array>
          </mxGeometry>
        </mxCell>
        <mxCell id="3bzI0cTrOGsjWDIgpTP--23" value="" style="endArrow=classic;html=1;rounded=0;entryX=0.5;entryY=0;entryDx=0;entryDy=0;strokeColor=#FF4D00;" edge="1" parent="1" target="3bzI0cTrOGsjWDIgpTP--13">
          <mxGeometry width="50" height="50" relative="1" as="geometry">
            <mxPoint x="400" y="1290" as="sourcePoint" />
            <mxPoint x="440" y="1120" as="targetPoint" />
          </mxGeometry>
        </mxCell>
        <mxCell id="3bzI0cTrOGsjWDIgpTP--24" value="" style="endArrow=classic;html=1;rounded=0;exitX=0.5;exitY=1;exitDx=0;exitDy=0;entryX=0.5;entryY=0;entryDx=0;entryDy=0;strokeColor=#FF4D00;" edge="1" parent="1" source="3bzI0cTrOGsjWDIgpTP--1" target="3bzI0cTrOGsjWDIgpTP--2">
          <mxGeometry width="50" height="50" relative="1" as="geometry">
            <mxPoint x="390" y="380" as="sourcePoint" />
            <mxPoint x="440" y="330" as="targetPoint" />
          </mxGeometry>
        </mxCell>
        <mxCell id="3bzI0cTrOGsjWDIgpTP--25" value="" style="endArrow=classic;html=1;rounded=0;exitX=0.5;exitY=1;exitDx=0;exitDy=0;entryX=0.5;entryY=0;entryDx=0;entryDy=0;strokeColor=#FF4D00;" edge="1" parent="1" source="3bzI0cTrOGsjWDIgpTP--2" target="3bzI0cTrOGsjWDIgpTP--3">
          <mxGeometry width="50" height="50" relative="1" as="geometry">
            <mxPoint x="390" y="380" as="sourcePoint" />
            <mxPoint x="440" y="330" as="targetPoint" />
          </mxGeometry>
        </mxCell>
        <mxCell id="3bzI0cTrOGsjWDIgpTP--26" value="" style="endArrow=classic;html=1;rounded=0;exitX=0.5;exitY=1;exitDx=0;exitDy=0;entryX=0.5;entryY=0;entryDx=0;entryDy=0;strokeColor=#FF4D00;" edge="1" parent="1" source="3bzI0cTrOGsjWDIgpTP--3" target="3bzI0cTrOGsjWDIgpTP--4">
          <mxGeometry width="50" height="50" relative="1" as="geometry">
            <mxPoint x="390" y="380" as="sourcePoint" />
            <mxPoint x="440" y="330" as="targetPoint" />
          </mxGeometry>
        </mxCell>
        <mxCell id="3bzI0cTrOGsjWDIgpTP--28" value="" style="endArrow=classic;html=1;rounded=0;exitX=0.5;exitY=1;exitDx=0;exitDy=0;strokeColor=#FF4D00;entryX=0.5;entryY=0;entryDx=0;entryDy=0;" edge="1" parent="1" source="3bzI0cTrOGsjWDIgpTP--5" target="3bzI0cTrOGsjWDIgpTP--45">
          <mxGeometry width="50" height="50" relative="1" as="geometry">
            <mxPoint x="390" y="380" as="sourcePoint" />
            <mxPoint x="400" y="500" as="targetPoint" />
          </mxGeometry>
        </mxCell>
        <mxCell id="3bzI0cTrOGsjWDIgpTP--30" value="" style="endArrow=classic;html=1;rounded=0;exitX=0.5;exitY=1;exitDx=0;exitDy=0;entryX=0.5;entryY=0;entryDx=0;entryDy=0;strokeColor=#FF4D00;" edge="1" parent="1" source="3bzI0cTrOGsjWDIgpTP--4" target="3bzI0cTrOGsjWDIgpTP--5">
          <mxGeometry width="50" height="50" relative="1" as="geometry">
            <mxPoint x="390" y="340" as="sourcePoint" />
            <mxPoint x="440" y="290" as="targetPoint" />
          </mxGeometry>
        </mxCell>
        <mxCell id="3bzI0cTrOGsjWDIgpTP--32" value="DeclaraciÃ³n de Constantes y Variables." style="text;html=1;align=center;verticalAlign=middle;whiteSpace=wrap;rounded=0;" vertex="1" parent="1">
          <mxGeometry x="70" y="80" width="250" height="30" as="geometry" />
        </mxCell>
        <mxCell id="3bzI0cTrOGsjWDIgpTP--33" value="" style="endArrow=classic;html=1;rounded=0;" edge="1" parent="1">
          <mxGeometry width="50" height="50" relative="1" as="geometry">
            <mxPoint x="300" y="100" as="sourcePoint" />
            <mxPoint x="400" y="100" as="targetPoint" />
          </mxGeometry>
        </mxCell>
        <mxCell id="3bzI0cTrOGsjWDIgpTP--35" value="Definir Como Constante Tipo float" style="text;html=1;align=center;verticalAlign=middle;whiteSpace=wrap;rounded=0;" vertex="1" parent="1">
          <mxGeometry x="560" y="135" width="190" height="30" as="geometry" />
        </mxCell>
        <mxCell id="3bzI0cTrOGsjWDIgpTP--36" value="Definir Como Variable tipo float" style="text;html=1;align=center;verticalAlign=middle;whiteSpace=wrap;rounded=0;" vertex="1" parent="1">
          <mxGeometry x="560" y="235" width="180" height="30" as="geometry" />
        </mxCell>
        <mxCell id="3bzI0cTrOGsjWDIgpTP--37" value="Definir Como Variables tipo float" style="text;html=1;align=center;verticalAlign=middle;whiteSpace=wrap;rounded=0;" vertex="1" parent="1">
          <mxGeometry x="560" y="335" width="190" height="30" as="geometry" />
        </mxCell>
        <mxCell id="3bzI0cTrOGsjWDIgpTP--38" value="Definir Como Variable tipo lÃ³gico" style="text;html=1;align=center;verticalAlign=middle;whiteSpace=wrap;rounded=0;" vertex="1" parent="1">
          <mxGeometry x="560" y="425" width="180" height="30" as="geometry" />
        </mxCell>
        <mxCell id="3bzI0cTrOGsjWDIgpTP--40" value="" style="endArrow=none;dashed=1;html=1;dashPattern=1 3;strokeWidth=2;rounded=0;exitX=1;exitY=0.5;exitDx=0;exitDy=0;" edge="1" parent="1" source="3bzI0cTrOGsjWDIgpTP--2" target="3bzI0cTrOGsjWDIgpTP--35">
          <mxGeometry width="50" height="50" relative="1" as="geometry">
            <mxPoint x="390" y="340" as="sourcePoint" />
            <mxPoint x="440" y="290" as="targetPoint" />
          </mxGeometry>
        </mxCell>
        <mxCell id="3bzI0cTrOGsjWDIgpTP--41" value="" style="endArrow=none;dashed=1;html=1;dashPattern=1 3;strokeWidth=2;rounded=0;entryX=0;entryY=0.5;entryDx=0;entryDy=0;" edge="1" parent="1" target="3bzI0cTrOGsjWDIgpTP--36">
          <mxGeometry width="50" height="50" relative="1" as="geometry">
            <mxPoint x="470" y="250" as="sourcePoint" />
            <mxPoint x="440" y="290" as="targetPoint" />
          </mxGeometry>
        </mxCell>
        <mxCell id="3bzI0cTrOGsjWDIgpTP--42" value="" style="endArrow=none;dashed=1;html=1;dashPattern=1 3;strokeWidth=2;rounded=0;entryX=0;entryY=0.5;entryDx=0;entryDy=0;exitX=1;exitY=0.5;exitDx=0;exitDy=0;" edge="1" parent="1" source="3bzI0cTrOGsjWDIgpTP--4" target="3bzI0cTrOGsjWDIgpTP--37">
          <mxGeometry width="50" height="50" relative="1" as="geometry">
            <mxPoint x="390" y="340" as="sourcePoint" />
            <mxPoint x="440" y="290" as="targetPoint" />
          </mxGeometry>
        </mxCell>
        <mxCell id="3bzI0cTrOGsjWDIgpTP--43" value="" style="endArrow=none;dashed=1;html=1;dashPattern=1 3;strokeWidth=2;rounded=0;exitX=1;exitY=0.5;exitDx=0;exitDy=0;entryX=0;entryY=0.5;entryDx=0;entryDy=0;" edge="1" parent="1" source="3bzI0cTrOGsjWDIgpTP--5" target="3bzI0cTrOGsjWDIgpTP--38">
          <mxGeometry width="50" height="50" relative="1" as="geometry">
            <mxPoint x="390" y="340" as="sourcePoint" />
            <mxPoint x="440" y="290" as="targetPoint" />
          </mxGeometry>
        </mxCell>
        <mxCell id="3bzI0cTrOGsjWDIgpTP--45" value="RUPIAS&amp;nbsp; = 87,34" style="rounded=1;whiteSpace=wrap;html=1;fillColor=#dae8fc;strokeColor=#6c8ebf;" vertex="1" parent="1">
          <mxGeometry x="340" y="540" width="120" height="60" as="geometry" />
        </mxCell>
        <mxCell id="3bzI0cTrOGsjWDIgpTP--46" value="" style="endArrow=classic;html=1;rounded=0;exitX=0.5;exitY=1;exitDx=0;exitDy=0;entryX=0.5;entryY=0;entryDx=0;entryDy=0;fontColor=#FF4D00;strokeColor=#FF4D00;" edge="1" parent="1" source="3bzI0cTrOGsjWDIgpTP--45" target="3bzI0cTrOGsjWDIgpTP--6">
          <mxGeometry width="50" height="50" relative="1" as="geometry">
            <mxPoint x="390" y="710" as="sourcePoint" />
            <mxPoint x="440" y="660" as="targetPoint" />
          </mxGeometry>
        </mxCell>
        <mxCell id="3bzI0cTrOGsjWDIgpTP--47" value="Inicializar Constantes y Variables.&amp;nbsp;" style="text;html=1;align=center;verticalAlign=middle;whiteSpace=wrap;rounded=0;" vertex="1" parent="1">
          <mxGeometry x="470" y="490" width="220" height="30" as="geometry" />
        </mxCell>
        <mxCell id="3bzI0cTrOGsjWDIgpTP--50" value="" style="endArrow=classic;html=1;rounded=0;" edge="1" parent="1" source="3bzI0cTrOGsjWDIgpTP--47">
          <mxGeometry width="50" height="50" relative="1" as="geometry">
            <mxPoint x="390" y="710" as="sourcePoint" />
            <mxPoint x="400" y="505" as="targetPoint" />
          </mxGeometry>
        </mxCell>
        <mxCell id="3bzI0cTrOGsjWDIgpTP--52" value="F" style="text;html=1;align=center;verticalAlign=middle;whiteSpace=wrap;rounded=0;" vertex="1" parent="1">
          <mxGeometry x="260" y="1045" width="60" height="30" as="geometry" />
        </mxCell>
        <mxCell id="3bzI0cTrOGsjWDIgpTP--53" value="V" style="text;html=1;align=center;verticalAlign=middle;whiteSpace=wrap;rounded=0;" vertex="1" parent="1">
          <mxGeometry x="480" y="1045" width="60" height="30" as="geometry" />
        </mxCell>
        <mxCell id="3bzI0cTrOGsjWDIgpTP--55" value="" style="endArrow=none;dashed=1;html=1;dashPattern=1 3;strokeWidth=2;rounded=0;" edge="1" parent="1" target="3bzI0cTrOGsjWDIgpTP--56">
          <mxGeometry width="50" height="50" relative="1" as="geometry">
            <mxPoint x="400" y="760" as="sourcePoint" />
            <mxPoint x="520" y="760" as="targetPoint" />
          </mxGeometry>
        </mxCell>
        <mxCell id="3bzI0cTrOGsjWDIgpTP--56" value="Entrada y Proceso" style="text;html=1;align=center;verticalAlign=middle;whiteSpace=wrap;rounded=0;" vertex="1" parent="1">
          <mxGeometry x="490" y="745" width="120" height="30" as="geometry" />
        </mxCell>
        <mxCell id="3bzI0cTrOGsjWDIgpTP--57" value="" style="endArrow=none;dashed=1;html=1;dashPattern=1 3;strokeWidth=2;rounded=0;" edge="1" parent="1">
          <mxGeometry width="50" height="50" relative="1" as="geometry">
            <mxPoint x="400" y="920" as="sourcePoint" />
            <mxPoint x="530" y="920" as="targetPoint" />
          </mxGeometry>
        </mxCell>
        <mxCell id="3bzI0cTrOGsjWDIgpTP--58" value="Entrada" style="text;html=1;align=center;verticalAlign=middle;whiteSpace=wrap;rounded=0;" vertex="1" parent="1">
          <mxGeometry x="530" y="900" width="60" height="30" as="geometry" />
        </mxCell>
        <mxCell id="3bzI0cTrOGsjWDIgpTP--59" value="" style="endArrow=none;dashed=1;html=1;dashPattern=1 3;strokeWidth=2;rounded=0;" edge="1" parent="1">
          <mxGeometry width="50" height="50" relative="1" as="geometry">
            <mxPoint x="400" y="1010" as="sourcePoint" />
            <mxPoint x="560" y="1010" as="targetPoint" />
          </mxGeometry>
        </mxCell>
        <mxCell id="3bzI0cTrOGsjWDIgpTP--60" value="Proceso" style="text;html=1;align=center;verticalAlign=middle;whiteSpace=wrap;rounded=0;" vertex="1" parent="1">
          <mxGeometry x="550" y="990" width="60" height="30" as="geometry" />
        </mxCell>
        <mxCell id="3bzI0cTrOGsjWDIgpTP--61" value="" style="endArrow=none;dashed=1;html=1;dashPattern=1 3;strokeWidth=2;rounded=0;" edge="1" parent="1" target="3bzI0cTrOGsjWDIgpTP--62">
          <mxGeometry width="50" height="50" relative="1" as="geometry">
            <mxPoint x="690" y="1215" as="sourcePoint" />
            <mxPoint x="690" y="1210" as="targetPoint" />
          </mxGeometry>
        </mxCell>
        <mxCell id="3bzI0cTrOGsjWDIgpTP--62" value="Salida" style="text;html=1;align=center;verticalAlign=middle;whiteSpace=wrap;rounded=0;" vertex="1" parent="1">
          <mxGeometry x="560" y="1200" width="60" height="30" as="geometry" />
        </mxCell>
      </root>
    </mxGraphModel>
  </diagram>
</mxfile>
